<?xml version="1.0" encoding="UTF-8" standalone="no"?>
<svg
   viewBox="0 0 24 24"
   width="24"
   height="24"
   version="1.1"
   id="svg1"
   sodipodi:docname="tools-report-bug.svg"
   inkscape:version="1.4.2 (unknown)"
   xmlns:inkscape="http://www.inkscape.org/namespaces/inkscape"
   xmlns:sodipodi="http://sodipodi.sourceforge.net/DTD/sodipodi-0.dtd"
   xmlns:xlink="http://www.w3.org/1999/xlink"
   xmlns="http://www.w3.org/2000/svg"
   xmlns:svg="http://www.w3.org/2000/svg">
  <sodipodi:namedview
     id="namedview1"
     pagecolor="#ffffff"
     bordercolor="#000000"
     borderopacity="0.25"
     inkscape:showpageshadow="2"
     inkscape:pageopacity="0.0"
     inkscape:pagecheckerboard="0"
     inkscape:deskcolor="#d1d1d1"
     inkscape:zoom="31.291667"
     inkscape:cx="11.984021"
     inkscape:cy="12"
     inkscape:current-layer="svg1" />
  <defs
     id="defs3051">
    <linearGradient
       id="linearGradient1"
       inkscape:collect="always">
      <stop
         style="stop-color:#ff5555;stop-opacity:1"
         offset="0"
         id="stop1" />
      <stop
         style="stop-color:#de87aa;stop-opacity:1"
         offset="1"
         id="stop2" />
    </linearGradient>
    <style
       type="text/css"
       id="current-color-scheme">.ColorScheme-Text {color:#fcfcfc;}</style>
    <linearGradient
       inkscape:collect="always"
       xlink:href="#linearGradient1"
       id="linearGradient2"
       x1="11"
       y1="19"
       x2="11"
       y2="3"
       gradientUnits="userSpaceOnUse" />
  </defs>
  <g
     transform="translate(1,1)"
     id="g1">
    <path
       style="fill:url(#linearGradient2);fill-opacity:1;stroke:none"
       d="m 3,6 c 0,3 0,7 0,10 0,3 3,3 3,3 h 10 c 0,0 3,0 3,-3 C 19,13 19,9 19,6 19,3 16,3 16,3 H 6 C 6,3 3,3 3,6 Z M 6,4 h 10 c 0,0 2,0 2,2 0,2 0,8 0,10 0,2 -2,2 -2,2 H 6 C 6,18 4,18 4,16 4,14 4,8 4,6 4,4 6,4 6,4 Z M 5,5 V 6 H 6 V 5 Z M 6,6 V 8 H 8 V 6 Z M 8,6 H 9 V 5 H 8 Z M 8,8 V 9 H 9 V 8 Z M 6,8 H 5 v 1 h 1 z m 7,-3 v 1 h 1 V 5 Z m 1,1 v 2 h 2 V 6 Z m 2,0 h 1 V 5 h -1 z m 0,2 v 1 h 1 V 8 Z m -2,0 h -1 v 1 h 1 z m -5,3 v 2 h 4 v -2 z m 4,2 v 2 h 2 v -2 z m 2,2 v 2 h 2 V 15 Z M 9,13 H 7 v 2 H 9 Z M 7,15 H 5 v 2 h 2 z"
       class="ColorScheme-Text"
       id="path1" />
  </g>
</svg>
