<?xml version="1.0" encoding="UTF-8" standalone="no"?>
<svg
   inkscape:version="1.3.2 (091e20ef0f, 2023-11-25)"
   sodipodi:docname="folder-design.svg"
   id="svg14"
   version="1.1"
   viewBox="0 0 32 32"
   xmlns:inkscape="http://www.inkscape.org/namespaces/inkscape"
   xmlns:sodipodi="http://sodipodi.sourceforge.net/DTD/sodipodi-0.dtd"
   xmlns:xlink="http://www.w3.org/1999/xlink"
   xmlns="http://www.w3.org/2000/svg"
   xmlns:svg="http://www.w3.org/2000/svg"
   xmlns:rdf="http://www.w3.org/1999/02/22-rdf-syntax-ns#"
   xmlns:cc="http://creativecommons.org/ns#"
   xmlns:dc="http://purl.org/dc/elements/1.1/">
  <metadata
     id="metadata18">
    <rdf:RDF>
      <cc:Work
         rdf:about="">
        <dc:format>image/svg+xml</dc:format>
        <dc:type
           rdf:resource="http://purl.org/dc/dcmitype/StillImage" />
      </cc:Work>
    </rdf:RDF>
  </metadata>
  <sodipodi:namedview
     inkscape:document-rotation="0"
     inkscape:current-layer="svg14"
     inkscape:window-maximized="1"
     inkscape:window-y="0"
     inkscape:window-x="0"
     inkscape:cy="33.559322"
     inkscape:cx="18.508475"
     inkscape:zoom="14.75"
     showgrid="true"
     id="namedview16"
     inkscape:window-height="996"
     inkscape:window-width="1920"
     inkscape:pageshadow="2"
     inkscape:pageopacity="0"
     guidetolerance="10"
     gridtolerance="10"
     objecttolerance="10"
     borderopacity="1"
     bordercolor="#666666"
     pagecolor="#ffffff"
     showguides="false"
     inkscape:showpageshadow="2"
     inkscape:pagecheckerboard="0"
     inkscape:deskcolor="#d1d1d1">
    <inkscape:grid
       type="xygrid"
       id="grid881"
       originx="0"
       originy="0"
       spacingy="1"
       spacingx="1"
       units="px"
       visible="true" />
  </sodipodi:namedview>
  <defs
     id="defs3051">
    <linearGradient
       inkscape:collect="always"
       id="linearGradient6">
      <stop
         style="stop-color:#286aeb;stop-opacity:1"
         offset="0"
         id="stop4" />
      <stop
         style="stop-color:#cd87de;stop-opacity:1;"
         offset="0.474316"
         id="stop6" />
      <stop
         style="stop-color:#5599ff;stop-opacity:1;"
         offset="1"
         id="stop5" />
    </linearGradient>
    <style
       id="current-color-scheme"
       type="text/css">
      .ColorScheme-Text {
        color:#31363b;
      }
      .ColorScheme-Background {
        color:#eff0f1;
      }
      .ColorScheme-Highlight {
        color:#3daee9;
      }
      .ColorScheme-ViewText {
        color:#31363b;
      }
      .ColorScheme-ViewBackground {
        color:#fcfcfc;
      }
      .ColorScheme-ViewHover {
        color:#93cee9;
      }
      .ColorScheme-ViewFocus{
        color:#3daee9;
      }
      .ColorScheme-ButtonText {
        color:#31363b;
      }
      .ColorScheme-ButtonBackground {
        color:#eff0f1;
      }
      .ColorScheme-ButtonHover {
        color:#93cee9;
      }
      .ColorScheme-ButtonFocus{
        color:#3daee9;
      }
      </style>
    <linearGradient
       inkscape:collect="always"
       xlink:href="#linearGradient6"
       id="linearGradient880"
       x1="8.8063383"
       y1="475.87613"
       x2="481.17258"
       y2="90.495461"
       gradientUnits="userSpaceOnUse" />
    <linearGradient
       inkscape:collect="always"
       xlink:href="#linearGradient6"
       id="linearGradient844"
       x1="320"
       y1="187.5"
       x2="439"
       y2="187.5"
       gradientUnits="userSpaceOnUse" />
    <linearGradient
       inkscape:collect="always"
       xlink:href="#linearGradient6"
       id="linearGradient852"
       x1="320"
       y1="227.5"
       x2="439"
       y2="227.5"
       gradientUnits="userSpaceOnUse" />
    <linearGradient
       inkscape:collect="always"
       xlink:href="#linearGradient6"
       id="linearGradient5"
       x1="12.28305"
       y1="22.589262"
       x2="20.063366"
       y2="19.335026"
       gradientUnits="userSpaceOnUse" />
  </defs>
  <g
     id="g8"
     transform="matrix(0.05714286,0,0,0.05714286,2.0659532,2.2289435)">
    <path
       d="M 439.5,84 H 234.729 L 198.09,45.279 C 182.464,28.269 164.607,20 143.5,20 h -88 C 24.897,20 0,44.897 0,75.5 v 344 C 0,450.103 24.897,475 55.5,475 h 384 c 30.603,0 55.5,-24.897 55.5,-55.5 v -280 C 495,108.897 470.103,84 439.5,84 Z M 480,419.5 c 0,22.332 -18.168,40.5 -40.5,40.5 H 55.5 C 33.168,460 15,441.832 15,419.5 v -232 C 15,165.168 33.168,147 55.5,147 h 384 c 22.332,0 40.5,18.168 40.5,40.5 z M 439.5,132 H 55.5 C 39.536,132 25.135,138.784 15,149.61 V 75.5 C 15,53.168 33.168,35 55.5,35 h 88 c 16.92,0 30.768,6.503 43.579,20.465 0.026,0.028 0.052,0.057 0.079,0.084 l 38.895,41.105 C 227.469,98.151 229.439,99 231.5,99 h 208 c 22.332,0 40.5,18.168 40.5,40.5 v 10.11 C 469.865,138.784 455.464,132 439.5,132 Z"
       id="path2"
       style="fill:url(#linearGradient880);fill-opacity:1" />
    <path
       d="m 431.5,180 h -104 c -4.142,0 -7.5,3.357 -7.5,7.5 0,4.143 3.358,7.5 7.5,7.5 h 104 c 4.142,0 7.5,-3.357 7.5,-7.5 0,-4.143 -3.358,-7.5 -7.5,-7.5 z"
       id="path4-3"
       style="fill:url(#linearGradient844);fill-opacity:1.0" />
    <path
       d="m 431.5,220 h -104 c -4.142,0 -7.5,3.357 -7.5,7.5 0,4.143 3.358,7.5 7.5,7.5 h 104 c 4.142,0 7.5,-3.357 7.5,-7.5 0,-4.143 -3.358,-7.5 -7.5,-7.5 z"
       id="path6-6"
       style="fill:url(#linearGradient852);fill-opacity:1.0" />
  </g>
  <path
     style="color:#232629;fill:url(#linearGradient5);fill-opacity:1;stroke:none;stroke-width:0.999951"
     d="m 16.001742,16.383517 c -0.187354,0 -0.340739,0.151219 -0.340739,0.338574 v 0.309698 c -0.603728,0.155032 -1.0381,0.690485 -1.0381,1.334075 0,0.450515 0.215094,0.851461 0.550813,1.103795 0.03572,0.04225 0.05775,0.09563 0.05775,0.155207 0,0.01733 1.6e-5,0.03425 -0.0024,0.05054 l -1.492141,3.162661 h -0.617172 c -0.100716,0 -0.183361,0.08121 -0.183361,0.18192 v 0.001 c 0,0.100728 0.08265,0.181917 0.183361,0.181917 h 0.445415 l -1.152161,2.442206 c -0.07256,0.154868 -0.03649,0.333869 0.07724,0.44975 l -0.443959,0.901621 0.70169,-0.760165 c 0.186271,0.04873 0.385488,-0.04007 0.469959,-0.218736 l 1.328309,-2.814667 h 1.167319 v 0.241839 c 0,0.153781 0.125232,0.27793 0.280099,0.27793 h 0.01516 c 0.154867,0 0.28082,-0.124149 0.28082,-0.27793 V 23.20289 h 1.194029 l 1.327587,2.814707 c 0.08339,0.179773 0.28405,0.267469 0.469237,0.218737 l 0.701689,0.760161 -0.442529,-0.901657 c 0.112629,-0.115876 0.149083,-0.293796 0.07652,-0.449745 l -1.152159,-2.442244 h 0.417978 c 0.101801,0 0.183368,-0.08119 0.183368,-0.181919 0,-0.100728 -0.08157,-0.181568 -0.183368,-0.182643 h -0.58977 l -1.491372,-3.162704 c -0.0024,-0.01622 -0.0024,-0.03318 -0.0024,-0.05054 0,-0.05846 0.02168,-0.112981 0.05631,-0.155218 0.335723,-0.252324 0.552258,-0.653271 0.552258,-1.103785 0,-0.652398 -0.454799,-1.194465 -1.065532,-1.341297 v -0.302511 c 0,-0.187351 -0.151577,-0.338571 -0.340016,-0.338571 z m 0.324136,1.248892 c 0.287254,0.120671 0.488729,0.403455 0.488729,0.733455 0,0.439687 -0.357297,0.796261 -0.799148,0.796261 -0.444018,0 -0.799148,-0.356574 -0.799148,-0.796261 0,-0.319314 0.189819,-0.592973 0.463462,-0.719734 0.04059,0.141188 0.166165,0.246891 0.321969,0.246891 0.159836,-1e-6 0.288039,-0.112097 0.324136,-0.260612 z m -0.316917,2.644336 h 0.0065 0.0065 c 0.04331,0 0.08157,0.02025 0.105396,0.05054 l 1.184652,2.510777 h -1.022152 v -0.293817 c 0,-0.154866 -0.125958,-0.279382 -0.280823,-0.279382 h -0.01516 c -0.154867,0 -0.2801,0.1256 -0.2801,0.279382 v 0.293817 h -0.995496 l 1.184647,-2.510784 c 0.02491,-0.03137 0.0628,-0.05054 0.106119,-0.05054 z"
     class="ColorScheme-Text"
     id="path5" />
</svg>
