<?xml version="1.0" encoding="UTF-8" standalone="no"?>
<svg
   width="32"
   height="32"
   version="1.1"
   id="svg1"
   sodipodi:docname="start-here-kde.svg"
   inkscape:version="1.3.2 (091e20ef0f, 2023-11-25)"
   xmlns:inkscape="http://www.inkscape.org/namespaces/inkscape"
   xmlns:sodipodi="http://sodipodi.sourceforge.net/DTD/sodipodi-0.dtd"
   xmlns:xlink="http://www.w3.org/1999/xlink"
   xmlns="http://www.w3.org/2000/svg"
   xmlns:svg="http://www.w3.org/2000/svg">
  <defs
     id="defs1">
    <linearGradient
       inkscape:collect="always"
       xlink:href="#linearGradient839"
       id="linearGradient841"
       x1="5.7997069"
       y1="5.4818196"
       x2="18.684671"
       y2="17.894281"
       gradientUnits="userSpaceOnUse" />
    <linearGradient
       inkscape:collect="always"
       id="linearGradient839">
      <stop
         style="stop-color:#3f9eff;stop-opacity:1"
         offset="0"
         id="stop835" />
      <stop
         style="stop-color:#08a19d;stop-opacity:1"
         offset="1"
         id="stop837" />
    </linearGradient>
  </defs>
  <sodipodi:namedview
     id="namedview1"
     pagecolor="#ffffff"
     bordercolor="#999999"
     borderopacity="1"
     inkscape:showpageshadow="2"
     inkscape:pageopacity="0"
     inkscape:pagecheckerboard="0"
     inkscape:deskcolor="#d1d1d1"
     inkscape:zoom="23.875"
     inkscape:cx="16.020942"
     inkscape:cy="15.497382"
     inkscape:window-width="1920"
     inkscape:window-height="996"
     inkscape:window-x="0"
     inkscape:window-y="0"
     inkscape:window-maximized="1"
     inkscape:current-layer="svg1" />
  <style
     type="text/css"
     id="current-color-scheme">.ColorScheme-Text { color: #fcfcfc; } </style>
  <g
     id="start-here-kde-5">
    <rect
       id="rect7"
       style="opacity:0.00100002"
       width="32"
       height="32"
       x="0"
       y="0" />
    <path
       id="path891"
       d="M 15.004055,9.6713073 C 15.004055,6.659379 12.56268,4.218 9.550749,4.218 c -3.011926,0 -5.4557488,2.441379 -5.4557488,5.4533073 0,3.0119307 2.4413763,5.4533037 5.4533027,5.4533037 3.0119321,0 5.4557521,-2.438927 5.4557521,-5.4533037 z m -8.7272447,0 c 0,-1.8096059 1.4667839,-3.2714963 3.2714926,-3.2714963 1.8047091,0 3.2714941,1.4643383 3.2714941,3.2714963 0,1.8096047 -1.466785,3.2714947 -3.2714941,3.2714947 -1.8047087,0 -3.2714926,-1.46189 -3.2714926,-3.2714947 z m 21.8156637,0 C 28.092474,6.659379 25.651102,4.218 22.639172,4.218 h -9.481451 c 0.839912,0.5558612 1.520656,1.3100687 2.029989,2.181811 h 3.112327 c -0.690543,0.9133748 -1.114169,2.0397902 -1.114169,3.2714963 0,3.0119307 2.441376,5.4533037 5.453304,5.4533037 3.01193,0.0023 5.453302,-2.438927 5.453302,-5.4533037 z m -8.727243,0 c 0,-1.8096059 1.464336,-3.2714963 3.27149,-3.2714963 1.809609,0 3.271496,1.4643383 3.271496,3.2714963 0,1.8096047 -1.464338,3.2714947 -3.271496,3.2714947 -1.807154,0.0023 -3.27149,-1.46189 -3.27149,-3.2714947 z m -5.835306,16.7933437 0.78359,-0.690539 -0.0073,-0.0073 6.557676,-5.759398 0.0098,0.0098 c 0,0 0.0023,-0.0023 0.0049,-0.0023 0.509332,-0.328112 1.111721,-0.524009 1.763078,-0.524009 1.809606,0 3.271493,1.466784 3.271493,3.271492 0,1.804707 -1.464335,3.271494 -3.271493,3.271494 -1.804706,0 -3.266594,-1.459436 -3.271492,-3.261696 l -1.880617,1.652886 c 0.697882,2.194062 2.722977,3.790624 5.14966,3.790624 3.011928,0 5.453303,-2.441375 5.453303,-5.453303 0,-2.61034 -1.838991,-4.789704 -4.290161,-5.323525 -0.377104,-0.08326 -0.764,-0.129782 -1.165593,-0.129782 -1.143549,0 -2.201399,0.355066 -3.078043,0.955 l -0.903576,0.793387 -3.700019,3.249457 c 0,-0.0074 -0.0023,-0.01223 -0.0023,-0.01961 l -2.916426,2.563812 c -0.01225,0.01468 -0.01714,0.03428 -0.02939,0.04898 -0.205691,0.23263 -0.430976,0.440773 -0.692988,0.609731 -0.509333,0.328131 -1.11172,0.524029 -1.7655305,0.524029 -1.8071534,0 -3.271489,-1.466786 -3.271489,-3.271497 0,-1.807157 1.466784,-3.269045 3.271489,-3.269045 1.7900175,0 3.2421085,1.43985 3.2690465,3.227419 l 1.870694,-1.648084 c -0.710119,-2.176906 -2.725417,-3.76123 -5.1398562,-3.76123 -3.0119273,0 -5.4533045,2.441378 -5.4533045,5.453305 0,2.610342 1.83899,4.789705 4.2901589,5.321079 0.3771033,0.0857 0.7640038,0.132231 1.1655922,0.132231 1.1411056,0 2.2014006,-0.352617 3.0780446,-0.955005 z"
       inkscape:connector-curvature="0"
       style="fill:url(#linearGradient841);fill-opacity:1;stroke-width:0.024487" />
  </g>
</svg>
