<?xml version="1.0" encoding="UTF-8" standalone="no"?>
<svg
   inkscape:version="1.3.2 (091e20ef0f, 2023-11-25)"
   sodipodi:docname="folder-design.svg"
   id="svg12"
   version="1.1"
   viewBox="0 0 64 64"
   xmlns:inkscape="http://www.inkscape.org/namespaces/inkscape"
   xmlns:sodipodi="http://sodipodi.sourceforge.net/DTD/sodipodi-0.dtd"
   xmlns:xlink="http://www.w3.org/1999/xlink"
   xmlns="http://www.w3.org/2000/svg"
   xmlns:svg="http://www.w3.org/2000/svg"
   xmlns:rdf="http://www.w3.org/1999/02/22-rdf-syntax-ns#"
   xmlns:cc="http://creativecommons.org/ns#"
   xmlns:dc="http://purl.org/dc/elements/1.1/">
  <metadata
     id="metadata16">
    <rdf:RDF>
      <cc:Work
         rdf:about="">
        <dc:format>image/svg+xml</dc:format>
        <dc:type
           rdf:resource="http://purl.org/dc/dcmitype/StillImage" />
      </cc:Work>
    </rdf:RDF>
  </metadata>
  <sodipodi:namedview
     inkscape:document-rotation="0"
     inkscape:current-layer="svg12"
     inkscape:window-maximized="1"
     inkscape:window-y="0"
     inkscape:window-x="0"
     inkscape:cy="34.024291"
     inkscape:cx="-7.6031936"
     inkscape:zoom="5.2609472"
     showgrid="false"
     id="namedview14"
     inkscape:window-height="996"
     inkscape:window-width="1920"
     inkscape:pageshadow="2"
     inkscape:pageopacity="0"
     guidetolerance="10"
     gridtolerance="10"
     objecttolerance="10"
     borderopacity="1"
     bordercolor="#666666"
     pagecolor="#ffffff"
     inkscape:showpageshadow="2"
     inkscape:pagecheckerboard="0"
     inkscape:deskcolor="#d1d1d1" />
  <defs
     id="defs3051">
    <linearGradient
       inkscape:collect="always"
       id="linearGradient2">
      <stop
         style="stop-color:#5599ff;stop-opacity:1"
         offset="0"
         id="stop1" />
      <stop
         style="stop-color:#cd87de;stop-opacity:1"
         offset="0.47134799"
         id="stop3" />
      <stop
         style="stop-color:#006dda;stop-opacity:1"
         offset="1"
         id="stop2" />
    </linearGradient>
    <linearGradient
       inkscape:collect="always"
       id="linearGradient842">
      <stop
         style="stop-color:#6db2c5;stop-opacity:1"
         offset="0"
         id="stop838" />
      <stop
         style="stop-color:#a3424b;stop-opacity:1"
         offset="1"
         id="stop840" />
    </linearGradient>
    <style
       id="current-color-scheme"
       type="text/css">
      .ColorScheme-Text {
        color:#31363b;
      }
      .ColorScheme-Background {
        color:#eff0f1;
      }
      .ColorScheme-Highlight {
        color:#3daee9;
      }
      .ColorScheme-ViewText {
        color:#31363b;
      }
      .ColorScheme-ViewBackground {
        color:#fcfcfc;
      }
      .ColorScheme-ViewHover {
        color:#93cee9;
      }
      .ColorScheme-ViewFocus{
        color:#3daee9;
      }
      .ColorScheme-ButtonText {
        color:#31363b;
      }
      .ColorScheme-ButtonBackground {
        color:#eff0f1;
      }
      .ColorScheme-ButtonHover {
        color:#93cee9;
      }
      .ColorScheme-ButtonFocus{
        color:#3daee9;
      }
      </style>
    <linearGradient
       inkscape:collect="always"
       xlink:href="#linearGradient842"
       id="linearGradient844"
       x1="0"
       y1="247.5"
       x2="495"
       y2="247.5"
       gradientUnits="userSpaceOnUse" />
    <linearGradient
       inkscape:collect="always"
       xlink:href="#linearGradient2"
       id="linearGradient838"
       gradientUnits="userSpaceOnUse"
       x1="10.923674"
       y1="466.36258"
       x2="486.99036"
       y2="28.371189" />
    <linearGradient
       inkscape:collect="always"
       xlink:href="#linearGradient2"
       id="linearGradient853"
       gradientUnits="userSpaceOnUse"
       x1="266.11179"
       y1="192.61444"
       x2="456.74643"
       y2="185.96165" />
    <linearGradient
       inkscape:collect="always"
       xlink:href="#linearGradient2"
       id="linearGradient855"
       gradientUnits="userSpaceOnUse"
       x1="267.77499"
       y1="245.83681"
       x2="495"
       y2="247.5" />
    <linearGradient
       inkscape:collect="always"
       xlink:href="#linearGradient2"
       id="linearGradient5"
       x1="23.808474"
       y1="41.911297"
       x2="39.520992"
       y2="41.911297"
       gradientUnits="userSpaceOnUse" />
  </defs>
  <g
     id="g8"
     transform="matrix(0.11428571,0,0,0.11428571,3.7762141,4.2052238)"
     style="fill-opacity:1;fill:url(#linearGradient844)">
    <path
       d="M 439.5,84 H 234.729 L 198.09,45.279 C 182.464,28.269 164.607,20 143.5,20 h -88 C 24.897,20 0,44.897 0,75.5 v 344 C 0,450.103 24.897,475 55.5,475 h 384 c 30.603,0 55.5,-24.897 55.5,-55.5 v -280 C 495,108.897 470.103,84 439.5,84 Z M 480,419.5 c 0,22.332 -18.168,40.5 -40.5,40.5 H 55.5 C 33.168,460 15,441.832 15,419.5 v -232 C 15,165.168 33.168,147 55.5,147 h 384 c 22.332,0 40.5,18.168 40.5,40.5 z M 439.5,132 H 55.5 C 39.536,132 25.135,138.784 15,149.61 V 75.5 C 15,53.168 33.168,35 55.5,35 h 88 c 16.92,0 30.768,6.503 43.579,20.465 0.026,0.028 0.052,0.057 0.079,0.084 l 38.895,41.105 C 227.469,98.151 229.439,99 231.5,99 h 208 c 22.332,0 40.5,18.168 40.5,40.5 v 10.11 C 469.865,138.784 455.464,132 439.5,132 Z"
       id="path2"
       style="fill-opacity:1;fill:url(#linearGradient838)" />
    <path
       d="m 431.5,180 h -104 c -4.142,0 -7.5,3.357 -7.5,7.5 0,4.143 3.358,7.5 7.5,7.5 h 104 c 4.142,0 7.5,-3.357 7.5,-7.5 0,-4.143 -3.358,-7.5 -7.5,-7.5 z"
       id="path4-3"
       style="fill:url(#linearGradient853);fill-opacity:1" />
    <path
       d="m 431.5,220 h -104 c -4.142,0 -7.5,3.357 -7.5,7.5 0,4.143 3.358,7.5 7.5,7.5 h 104 c 4.142,0 7.5,-3.357 7.5,-7.5 0,-4.143 -3.358,-7.5 -7.5,-7.5 z"
       id="path6-6"
       style="fill:url(#linearGradient855);fill-opacity:1" />
  </g>
  <path
     style="stroke-width:0.999991;stroke:none;fill-opacity:1.0;fill:url(#linearGradient5);color:#232629;"
     d="m 31.640062,31.40479 c -0.370948,0 -0.674638,0.299398 -0.674638,0.670353 v 0.613178 c -1.19534,0.306949 -2.055367,1.367118 -2.055367,2.641381 0,0.891991 0.42587,1.685831 1.090572,2.185436 0.07074,0.0836 0.114348,0.189372 0.114348,0.307298 0,0.03433 3.1e-5,0.0679 -0.0048,0.100057 l -2.954339,6.261853 h -1.221967 c -0.199411,0 -0.363041,0.160775 -0.363041,0.360187 v 0.002 c 0,0.199412 0.16363,0.360185 0.363041,0.360185 h 0.881892 l -2.281194,4.835395 c -0.143664,0.306623 -0.07225,0.661037 0.152934,0.890468 l -0.879029,1.785218 1.389298,-1.505073 c 0.368802,0.09648 0.76324,-0.07931 0.930486,-0.433084 l 2.629952,-5.572924 h 2.311212 v 0.478827 c 0,0.304477 0.247952,0.550284 0.554577,0.550284 h 0.03001 c 0.306626,0 0.556005,-0.245807 0.556005,-0.550284 v -0.478866 h 2.364095 l 2.628523,5.572923 c 0.165101,0.355936 0.562404,0.52957 0.929065,0.433084 l 1.389295,1.505068 -0.87617,-1.785222 c 0.222991,-0.229423 0.295169,-0.581696 0.151509,-0.89046 L 36.515132,44.9066 h 0.827573 c 0.201557,0 0.363056,-0.160777 0.363056,-0.360188 0,-0.199412 -0.161499,-0.359497 -0.363056,-0.361618 h -1.167704 l -2.952815,-6.261942 c -0.0048,-0.03217 -0.0048,-0.06574 -0.0048,-0.100055 0,-0.115787 0.04292,-0.223679 0.111484,-0.307305 0.664708,-0.499599 1.093432,-1.293436 1.093432,-2.185428 0,-1.291705 -0.900469,-2.36495 -2.109679,-2.655677 v -0.598932 c 0,-0.370948 -0.300113,-0.670351 -0.673209,-0.670351 z m 0.641766,2.472722 c 0.568744,0.23892 0.967651,0.798806 0.967651,1.45219 0,0.870549 -0.707423,1.576539 -1.582259,1.576539 -0.879124,0 -1.582256,-0.70599 -1.582256,-1.576539 0,-0.632223 0.375828,-1.174055 0.917622,-1.42503 0.08036,0.279546 0.328995,0.488831 0.637476,0.488831 0.316464,-1e-6 0.570299,-0.221939 0.641766,-0.515991 z m -0.627473,5.235605 h 0.01294 0.01293 c 0.08574,0 0.161509,0.04005 0.20868,0.100051 l 2.345516,4.971178 h -2.02393 v -0.581732 c 0,-0.306624 -0.249388,-0.553151 -0.556008,-0.553151 h -0.03002 c -0.306625,10e-7 -0.554578,0.248673 -0.554578,0.553151 v 0.581732 h -1.971044 l 2.345519,-4.971178 c 0.04932,-0.06213 0.124339,-0.100051 0.210107,-0.100051 z"
     class="ColorScheme-Text"
     id="path5" />
</svg>
