<?xml version="1.0" encoding="UTF-8" standalone="no"?>
<svg
   fill="none"
   viewBox="0 0 22 22"
   version="1.1"
   id="svg3"
   sodipodi:docname="applications-education-mathematics-symbolic.svg"
   inkscape:version="1.4 (unknown)"
   xmlns:inkscape="http://www.inkscape.org/namespaces/inkscape"
   xmlns:sodipodi="http://sodipodi.sourceforge.net/DTD/sodipodi-0.dtd"
   xmlns:xlink="http://www.w3.org/1999/xlink"
   xmlns="http://www.w3.org/2000/svg"
   xmlns:svg="http://www.w3.org/2000/svg">
  <sodipodi:namedview
     id="namedview3"
     pagecolor="#ffffff"
     bordercolor="#000000"
     borderopacity="0.25"
     inkscape:showpageshadow="2"
     inkscape:pageopacity="0.0"
     inkscape:pagecheckerboard="0"
     inkscape:deskcolor="#d1d1d1"
     inkscape:zoom="10.28519"
     inkscape:cx="13.952101"
     inkscape:cy="21.730275"
     inkscape:window-width="1920"
     inkscape:window-height="998"
     inkscape:window-x="0"
     inkscape:window-y="0"
     inkscape:window-maximized="1"
     inkscape:current-layer="svg3" />
  <defs
     id="defs1">
    <linearGradient
       id="linearGradient7"
       inkscape:collect="always">
      <stop
         style="stop-color:#ff9955;stop-opacity:1"
         offset="0"
         id="stop6" />
      <stop
         style="stop-color:#5599ff;stop-opacity:1"
         offset="1"
         id="stop7" />
    </linearGradient>
    <style
       type="text/css"
       id="current-color-scheme">.ColorScheme-Text { color: #fcfcfc; } </style>
    <linearGradient
       inkscape:collect="always"
       xlink:href="#linearGradient7"
       id="linearGradient4"
       x1="5.5"
       y1="11"
       x2="16.5"
       y2="11"
       gradientUnits="userSpaceOnUse" />
    <linearGradient
       inkscape:collect="always"
       xlink:href="#linearGradient7"
       id="linearGradient6"
       x1="11"
       y1="19"
       x2="11"
       y2="3"
       gradientUnits="userSpaceOnUse" />
    <linearGradient
       inkscape:collect="always"
       xlink:href="#linearGradient7"
       id="linearGradient9"
       gradientUnits="userSpaceOnUse"
       x1="12"
       y1="11.5"
       x2="16"
       y2="11.5" />
  </defs>
  <path
     d="M 10.67,7 H 16.5 V 8 H 11.33 L 8.55,15 H 7 V 11 H 5.5 V 10 H 8 v 2.5 L 7.875,14 9,11 Z"
     style="fill:url(#linearGradient4)"
     class="ColorScheme-Text"
     id="path1"
     sodipodi:nodetypes="cccccccccccccc" />
  <path
     d="M 16,13.1 V 14 h -4 v -1 c 0.402,-0.268 0.804,-0.5 1.177,-0.715 C 14.197,11.696 15,11.232 15,10.5 15,10 14.5,9.9 14,9.9 c -0.5,0 -1,0.1 -1,0.6 h -1 c 0,-1 1,-1.5 2,-1.5 1,0 2,0.4 2,1.5 0,1.85 -3,2.7 -3,2.7 l 1,-0.1 z"
     style="fill:url(#linearGradient9)"
     class="ColorScheme-Text"
     id="path2"
     sodipodi:nodetypes="cccccssccssccc" />
  <path
     fill-rule="evenodd"
     d="M2 19V3h18v16zM3 4h16v14H3z"
     clip-rule="evenodd"
     style="fill:url(#linearGradient6)"
     class="ColorScheme-Text"
     id="path3" />
</svg>
