<?xml version="1.0" encoding="UTF-8" standalone="no"?>
<svg
   viewBox="0 0 16 16"
   id="svg5"
   version="1.1"
   sodipodi:docname="folder-saved-search.svg"
   inkscape:version="1.4 (unknown)"
   xmlns:inkscape="http://www.inkscape.org/namespaces/inkscape"
   xmlns:sodipodi="http://sodipodi.sourceforge.net/DTD/sodipodi-0.dtd"
   xmlns:xlink="http://www.w3.org/1999/xlink"
   xmlns="http://www.w3.org/2000/svg"
   xmlns:svg="http://www.w3.org/2000/svg">
  <sodipodi:namedview
     id="namedview1"
     pagecolor="#ffffff"
     bordercolor="#000000"
     borderopacity="0.25"
     inkscape:showpageshadow="2"
     inkscape:pageopacity="0.0"
     inkscape:pagecheckerboard="0"
     inkscape:deskcolor="#d1d1d1"
     inkscape:zoom="20"
     inkscape:cx="1.825"
     inkscape:cy="5.5"
     inkscape:window-width="1920"
     inkscape:window-height="996"
     inkscape:window-x="0"
     inkscape:window-y="0"
     inkscape:window-maximized="1"
     inkscape:current-layer="svg5" />
  <defs
     id="defs3051">
    <linearGradient
       id="linearGradient1"
       inkscape:collect="always">
      <stop
         style="stop-color:#dc8add;stop-opacity:1"
         offset="0"
         id="stop1" />
      <stop
         style="stop-color:#ffa348;stop-opacity:1"
         offset="1"
         id="stop2" />
    </linearGradient>
    <style
       type="text/css"
       id="current-color-scheme">
      .ColorScheme-Text {
        color:#eff0f1;
      }
      </style>
    <linearGradient
       inkscape:collect="always"
       xlink:href="#linearGradient1"
       id="linearGradient2"
       x1="1.9979999"
       y1="7.9999999"
       x2="14.002"
       y2="7.9999999"
       gradientUnits="userSpaceOnUse" />
  </defs>
  <path
     style="fill:url(#linearGradient2);fill-opacity:1;stroke:none"
     d="M6.713 1.998a4.714 4.714 0 0 0-4.715 4.715 4.714 4.714 0 0 0 4.715 4.715 4.714 4.714 0 0 0 3.016-1.092l3.667 3.666.606-.606-3.67-3.67a4.714 4.714 0 0 0 1.096-3.013 4.714 4.714 0 0 0-4.715-4.715zm0 1.096a3.62 3.62 0 0 1 3.619 3.619 3.62 3.62 0 0 1-3.62 3.619 3.62 3.62 0 0 1-3.62-3.62 3.62 3.62 0 0 1 3.62-3.618z"
     class="ColorScheme-Text"
     id="path1" />
</svg>
