<?xml version="1.0" encoding="UTF-8" standalone="no"?>
<svg
   width="48"
   height="48"
   version="1.1"
   viewBox="0 0 48 48"
   id="svg23"
   sodipodi:docname="applications-utilities.svg"
   inkscape:version="1.3.2 (091e20ef0f, 2023-11-25)"
   xmlns:inkscape="http://www.inkscape.org/namespaces/inkscape"
   xmlns:sodipodi="http://sodipodi.sourceforge.net/DTD/sodipodi-0.dtd"
   xmlns="http://www.w3.org/2000/svg"
   xmlns:svg="http://www.w3.org/2000/svg">
  <sodipodi:namedview
     id="namedview25"
     pagecolor="#ffffff"
     bordercolor="#666666"
     borderopacity="1.0"
     inkscape:showpageshadow="2"
     inkscape:pageopacity="0.0"
     inkscape:pagecheckerboard="0"
     inkscape:deskcolor="#d1d1d1"
     showgrid="false"
     inkscape:zoom="3.6875"
     inkscape:cx="29.016949"
     inkscape:cy="29.016949"
     inkscape:window-width="1920"
     inkscape:window-height="996"
     inkscape:window-x="0"
     inkscape:window-y="0"
     inkscape:window-maximized="1"
     inkscape:current-layer="svg23" />
  <defs
     id="defs5">
    <clipPath
       id="a">
      <circle
         cx="8.467"
         cy="288.53"
         r="6.8790002"
         fill="#d86eb0"
         stroke-opacity="0.039"
         stroke-width="0.491"
         style="paint-order:stroke markers fill"
         id="circle2" />
    </clipPath>
    <linearGradient
       id="linearGradient1018"
       x1="25.163"
       x2="35.091"
       y1="12.334"
       y2="1.7072001"
       gradientTransform="matrix(3.1186717,0,0,3.1186717,-69.714071,2.8440975)"
       gradientUnits="userSpaceOnUse">
      <stop
         stop-color="#807c76"
         offset=".057692"
         id="stop3-2" />
      <stop
         stop-color="#fff"
         offset=".38462"
         id="stop4-8" />
      <stop
         stop-color="#bdbfba"
         offset=".55769"
         id="stop5-9" />
      <stop
         stop-color="#acb3ac"
         offset=".63462"
         id="stop6" />
      <stop
         stop-color="#f7f8f7"
         offset=".75"
         id="stop7-7" />
      <stop
         stop-color="#c2c7c1"
         offset=".86274"
         id="stop8-3" />
      <stop
         stop-color="#7f7a75"
         offset=".94118"
         id="stop9-6" />
    </linearGradient>
    <filter
       id="filter11290"
       x="-0.023999869"
       y="-0.023999869"
       width="1.0479997"
       height="1.0479997"
       color-interpolation-filters="sRGB">
      <feGaussianBlur
         stdDeviation="0.15875313"
         id="feGaussianBlur1" />
    </filter>
    <linearGradient
       id="linearGradient919"
       x1="7.8644214"
       x2="36.509655"
       y1="40.034424"
       y2="7.0508366"
       gradientTransform="matrix(1.0000071,0,0,1.0000072,3.4776815e-4,4.7044246e-4)"
       gradientUnits="userSpaceOnUse">
      <stop
         stop-color="#16a085"
         offset="0"
         id="stop1" />
      <stop
         stop-color="#2ecc85"
         offset="1"
         id="stop2"
         style="stop-color:#b380ff;stop-opacity:1" />
    </linearGradient>
  </defs>
  <circle
     cx="8.4665003"
     cy="8.4665003"
     r="7.9376998"
     filter="url(#filter11290)"
     opacity="0.25"
     stroke-width="0.200546"
     id="circle2-3"
     transform="matrix(2.6445696,0,0,2.6445176,1.6101835,1.6101911)" />
  <path
     d="m 44.991704,24.000252 c 0,2.516357 -0.442941,4.929136 -1.255244,7.164802 -0.564643,1.554117 -1.307454,3.02346 -2.205361,4.382484 -0.376109,0.571418 -0.780521,1.123279 -1.209785,1.653571 -1.374278,1.697216 -3.007405,3.17525 -4.840882,4.37484 -0.675162,0.442073 -1.376872,0.846526 -2.10344,1.20881 -2.821226,1.411885 -6.006082,2.206111 -9.376589,2.206111 -3.370502,0 -6.555359,-0.794194 -9.376584,-2.206161 C 13.897252,42.422291 13.194694,42.017845 12.519558,41.575888 10.662913,40.360098 9.0102183,38.858907 7.624728,37.133621 7.1946418,36.599001 6.7910537,36.042125 6.4149434,35.465498 5.5410189,34.128968 4.8170416,32.686916 4.2635863,31.162905 3.4513859,28.927455 3.0092402,26.515667 3.0092402,24.000199 c 0,-11.593034 9.3982718,-20.9911128 20.9915348,-20.9911128 5.819375,0 11.085244,2.3681372 14.887337,6.1926631 1.095805,1.1017847 2.069989,2.3253217 2.899246,3.6481147 0.784006,1.245775 1.439411,2.580574 1.949153,3.984754 0.812357,2.236177 1.255324,4.648783 1.255324,7.164785 z"
     fill="url(#linearGradient919)"
     stroke-width="0.117191"
     id="path2"
     style="fill:url(#linearGradient919)" />
  <g
     transform="matrix(0.02460111,0,0,0.02460061,10.73924,11.404417)"
     fill="#ffffff"
     id="g5"
     style="stroke-width:1.42923">
    <path
       d="m 152.77,11.47 213.05,206.38 -37.094,36.932 159.44,158.55 -76.955,73.782 -159.44,-158.55 -38.477,36.932 -213.05,-206.38 z"
       p-id="3100"
       id="path3"
       style="stroke-width:1.42923" />
    <path
       d="M 1077.9,217.85 H 972.15 l -42.707,42.463 -31.644,31.4 -33.027,32.539 -87.855,-23.265 -23.428,-87.204 66.054,-65.078 42.789,-42.951 V 0.574 h -8.1347 a 244.04,244.04 0 0 0 -178.96,68.332 234.77,234.77 0 0 0 -68.738,147.65 250.71,250.71 0 0 0 10.982,95.664 v 2.7658 a 34.166,34.166 0 0 1 -9.599,36.932 c -17.896,16.269 -525.1,497.52 -525.1,497.52 -42.626,35.549 -38.477,102.5 0,142.11 39.86,38.233 105.75,40.674 142.93,0 0,0 478.32,-504.35 498.98,-524.85 a 33.678,33.678 0 0 1 30.18,-11.145 c 5.5316,1.3829 10.982,4.0674 16.269,5.4503 a 242.17,242.17 0 0 0 87.936,9.599 237.29,237.29 0 0 0 148.46,-68.332 231.68,231.68 0 0 0 68.738,-177.66 14.805,14.805 0 0 0 1.6269,-6.7518 z M 179.01,943.63 a 33.352,33.352 0 0 1 -48.076,0 32.539,32.539 0 0 1 0,-47.832 33.352,33.352 0 0 1 48.076,0 35.467,35.467 0 0 1 0,47.832 z"
       p-id="3101"
       id="path4"
       style="stroke-width:1.42923" />
    <path
       d="M 981.62,785.08 747.99,567.8 c 0,0 -130.64,34.166 -221.35,185.88 5.5316,1.3829 241.93,239.16 241.93,239.16 a 109.98,109.98 0 0 0 152.61,0 l 60.441,-58.733 a 102.82,102.82 0 0 0 0,-149.03 z M 854.15,951.76 a 29.366,29.366 0 0 1 -38.477,0 l -195.23,-189.95 -1.3829,-1.3829 a 25.543,25.543 0 0 1 1.3829,-35.549 29.366,29.366 0 0 1 38.477,0 l 196.54,189.95 a 28.797,28.797 0 0 1 -1.3016,36.932 z m 86.635,-83.381 a 29.366,29.366 0 0 1 -38.477,0 l -196.94,-189.95 -1.3829,-1.3829 a 25.543,25.543 0 0 1 1.3829,-35.549 29.366,29.366 0 0 1 38.477,0 l 196.54,189.95 a 24.404,24.404 0 0 1 0,37.013 z"
       p-id="3102"
       id="path5"
       style="stroke-width:1.42923" />
  </g>
</svg>
